<svg xmlns="http://www.w3.org/2000/svg" xmlns:xlink="http://www.w3.org/1999/xlink" width="500" zoomAndPan="magnify" viewBox="0 0 375 374.999991" height="500" preserveAspectRatio="xMidYMid meet" version="1.0"><defs><g/></defs><g fill="#d8a7b1" fill-opacity="1"><g transform="translate(78.026176, 166.499989)"><g><path d="M 63.125 -70.890625 C 62.570312 -75.554688 60.328125 -79.179688 56.390625 -81.765625 C 52.453125 -84.359375 47.625 -85.65625 41.90625 -85.65625 C 35.625 -85.65625 30.578125 -84.171875 26.765625 -81.203125 C 22.953125 -78.234375 21.046875 -74.484375 21.046875 -69.953125 C 21.046875 -66.578125 22.082031 -63.847656 24.15625 -61.765625 C 26.238281 -59.691406 28.703125 -58.078125 31.546875 -56.921875 C 34.390625 -55.765625 36.976562 -54.878906 39.3125 -54.265625 L 48.921875 -51.6875 C 51.378906 -51.039062 54.125 -50.144531 57.15625 -49 C 60.1875 -47.863281 63.09375 -46.316406 65.875 -44.359375 C 68.65625 -42.410156 70.953125 -39.910156 72.765625 -36.859375 C 74.585938 -33.816406 75.5 -30.082031 75.5 -25.65625 C 75.5 -20.550781 74.164062 -15.9375 71.5 -11.8125 C 68.84375 -7.6875 64.96875 -4.410156 59.875 -1.984375 C 54.78125 0.441406 48.601562 1.65625 41.34375 1.65625 C 31.195312 1.65625 23.140625 -0.738281 17.171875 -5.53125 C 11.203125 -10.332031 7.941406 -16.609375 7.390625 -24.359375 L 19.203125 -24.359375 C 19.503906 -20.796875 20.707031 -17.851562 22.8125 -15.53125 C 24.925781 -13.207031 27.601562 -11.484375 30.84375 -10.359375 C 34.09375 -9.234375 37.59375 -8.671875 41.34375 -8.671875 C 45.71875 -8.671875 49.640625 -9.382812 53.109375 -10.8125 C 56.585938 -12.25 59.34375 -14.25 61.375 -16.8125 C 63.40625 -19.382812 64.421875 -22.394531 64.421875 -25.84375 C 64.421875 -28.976562 63.539062 -31.53125 61.78125 -33.5 C 60.03125 -35.46875 57.722656 -37.066406 54.859375 -38.296875 C 52.003906 -39.535156 48.914062 -40.613281 45.59375 -41.53125 L 33.96875 -44.859375 C 26.582031 -46.984375 20.734375 -50.015625 16.421875 -53.953125 C 12.117188 -57.890625 9.96875 -63.039062 9.96875 -69.40625 C 9.96875 -74.695312 11.40625 -79.316406 14.28125 -83.265625 C 17.15625 -87.222656 21.03125 -90.300781 25.90625 -92.5 C 30.789062 -94.695312 36.242188 -95.796875 42.265625 -95.796875 C 48.359375 -95.796875 53.773438 -94.710938 58.515625 -92.546875 C 63.253906 -90.378906 67.015625 -87.414062 69.796875 -83.65625 C 72.578125 -79.90625 74.046875 -75.648438 74.203125 -70.890625 Z M 63.125 -70.890625 "/></g></g></g><g fill="#d8a7b1" fill-opacity="1"><g transform="translate(200.801726, 166.499989)"><g><path d="M 11.4375 0 L 11.4375 -94.515625 L 22.890625 -94.515625 L 22.890625 -52.421875 L 73.28125 -52.421875 L 73.28125 -94.515625 L 84.734375 -94.515625 L 84.734375 0 L 73.28125 0 L 73.28125 -42.265625 L 22.890625 -42.265625 L 22.890625 0 Z M 11.4375 0 "/></g></g></g><g fill="#fefefe" fill-opacity="1"><g transform="translate(80.948923, 306.753378)"><g><path d="M 15.328125 0 L 3.328125 0 L 38.03125 -94.515625 L 49.84375 -94.515625 L 84.546875 0 L 72.546875 0 L 63.03125 -26.765625 L 24.828125 -26.765625 Z M 28.421875 -36.921875 L 59.4375 -36.921875 L 44.296875 -79.5625 L 43.5625 -79.5625 Z M 28.421875 -36.921875 "/></g></g></g><g fill="#fefefe" fill-opacity="1"><g transform="translate(236.908495, 306.753378)"><g><path d="M 22.890625 -94.515625 L 22.890625 0 L 11.4375 0 L 11.4375 -94.515625 Z M 22.890625 -94.515625 "/></g></g></g></svg>