<svg xmlns="http://www.w3.org/2000/svg" xmlns:xlink="http://www.w3.org/1999/xlink" width="500" zoomAndPan="magnify" viewBox="0 0 375 374.999991" height="500" preserveAspectRatio="xMidYMid meet" version="1.0"><defs><clipPath id="6f8f86981d"><path d="M 37.5 38 L 337.5 38 L 337.5 337 L 37.5 337 Z M 37.5 38 " clip-rule="nonzero"/></clipPath></defs><g clip-path="url(#6f8f86981d)"><path fill="#fefefe" d="M 299.792969 38.085938 L 75.121094 38.085938 C 54.476562 38.085938 37.5 55.035156 37.5 75.589844 L 37.5 299.230469 C 37.5 319.785156 54.476562 336.914062 75.121094 336.914062 L 186.914062 336.914062 L 186.914062 233.789062 L 150 233.789062 L 150 188.085938 L 186.914062 188.085938 L 186.914062 150.136719 C 186.914062 119.253906 212.605469 94.921875 243.628906 94.921875 L 281.835938 94.921875 L 281.835938 141.210938 L 262.347656 141.210938 C 252.015625 141.210938 243.75 139.847656 243.75 150.136719 L 243.75 188.085938 L 290.4375 188.085938 L 271.710938 233.789062 L 243.75 233.789062 L 243.75 336.914062 L 299.792969 336.914062 C 320.445312 336.914062 337.5 319.785156 337.5 299.230469 L 337.5 75.589844 C 337.5 55.035156 320.445312 38.085938 299.792969 38.085938 Z M 299.792969 38.085938 " fill-opacity="1" fill-rule="nonzero"/></g></svg>