<svg xmlns="http://www.w3.org/2000/svg" xmlns:xlink="http://www.w3.org/1999/xlink" width="500" zoomAndPan="magnify" viewBox="0 0 375 374.999991" height="500" preserveAspectRatio="xMidYMid meet" version="1.0"><defs><clipPath id="30d6509181"><path d="M 37.5 56 L 337.5 56 L 337.5 319 L 37.5 319 Z M 37.5 56 " clip-rule="nonzero"/></clipPath></defs><g clip-path="url(#30d6509181)"><path fill="#fefefe" d="M 221.277344 223.667969 L 221.277344 236.628906 C 221.277344 245.566406 214.035156 252.8125 205.097656 252.808594 L 143.207031 252.808594 C 136.878906 252.808594 131.742188 257.941406 131.746094 264.273438 L 131.746094 302.316406 C 131.746094 311.253906 124.503906 318.492188 115.566406 318.496094 L 53.675781 318.496094 C 49.386719 318.496094 45.269531 316.789062 42.234375 313.757812 C 39.199219 310.722656 37.496094 306.609375 37.492188 302.316406 L 37.5 114.726562 C 37.496094 110.433594 39.203125 106.3125 42.242188 103.285156 C 45.273438 100.25 49.386719 98.546875 53.675781 98.546875 L 82.40625 98.542969 L 82.808594 98.3125 L 80.132812 93.675781 C 77.652344 89.382812 79.125 83.890625 83.417969 81.414062 L 88.734375 78.34375 C 88.304688 77.808594 87.914062 77.238281 87.5625 76.628906 C 83.847656 70.195312 86.050781 61.957031 92.484375 58.242188 C 98.921875 54.523438 107.160156 56.738281 110.871094 63.167969 C 111.226562 63.78125 111.523438 64.402344 111.773438 65.042969 L 117.089844 61.972656 C 121.382812 59.496094 126.875 60.964844 129.351562 65.257812 L 132.03125 69.894531 L 140.769531 64.847656 C 145.070312 62.367188 150.5625 63.839844 153.042969 68.136719 L 156.65625 74.398438 C 158.714844 73.226562 161.148438 72.90625 163.4375 73.519531 C 165.742188 74.136719 167.695312 75.644531 168.890625 77.710938 L 172.390625 83.773438 C 173.585938 85.839844 173.910156 88.285156 173.292969 90.589844 C 172.675781 92.886719 171.167969 94.851562 169.109375 96.042969 L 164.769531 98.546875 L 205.097656 98.542969 C 209.386719 98.542969 213.503906 100.25 216.542969 103.285156 C 219.574219 106.3125 221.277344 110.433594 221.277344 114.71875 L 221.28125 168.175781 C 237.378906 180.902344 255.597656 191.460938 274.773438 196.296875 C 275.652344 192.921875 277.738281 190.503906 280.402344 189.785156 C 282.933594 189.109375 285.75 189.984375 288.121094 192.195312 L 331.714844 184.71875 C 334.066406 184.320312 336.335938 185.773438 336.957031 188.078125 L 337.339844 189.511719 C 337.953125 191.800781 336.734375 194.1875 334.515625 195.03125 L 291.660156 211.296875 C 290.566406 213.550781 288.832031 214.820312 287.226562 215.257812 C 284.386719 216.015625 281.207031 214.832031 278.683594 212 C 278.625 211.941406 278.574219 211.882812 278.523438 211.820312 C 274.78125 213.695312 266.070312 217.855469 260.828125 218.867188 C 259.546875 219.109375 258.3125 218.273438 258.066406 216.996094 C 257.816406 215.71875 258.65625 214.480469 259.933594 214.234375 C 264.644531 213.328125 272.316406 209.675781 276.011719 207.820312 C 275.597656 206.90625 275.246094 205.921875 274.96875 204.890625 C 274.617188 203.589844 274.414062 202.296875 274.34375 201.050781 C 254.058594 196.082031 234.792969 184.859375 217.839844 171.347656 C 217.5625 171.207031 217.3125 171.011719 217.113281 170.769531 C 188.65625 147.890625 166.832031 118.667969 157.886719 102.0625 C 157.867188 102.03125 157.847656 102 157.832031 101.96875 C 157.507812 101.371094 157.203125 100.785156 156.914062 100.210938 C 156.347656 99.097656 156.753906 97.730469 157.839844 97.105469 L 166.75 91.960938 C 167.730469 91.394531 168.445312 90.460938 168.738281 89.371094 C 169.03125 88.273438 168.875 87.109375 168.308594 86.128906 L 164.808594 80.066406 C 164.242188 79.085938 163.3125 78.371094 162.214844 78.074219 C 161.125 77.78125 159.960938 77.933594 158.980469 78.5 L 104.199219 110.128906 C 103.074219 110.777344 101.636719 110.394531 100.984375 109.265625 C 100.335938 108.140625 100.71875 106.695312 101.84375 106.046875 L 152.574219 76.753906 L 148.960938 70.492188 C 147.78125 68.449219 145.171875 67.75 143.128906 68.929688 L 132.347656 75.15625 C 131.222656 75.804688 129.777344 75.421875 129.128906 74.296875 L 125.269531 67.617188 C 124.09375 65.578125 121.484375 64.878906 119.445312 66.054688 L 111.429688 70.683594 C 111.144531 70.847656 110.835938 70.949219 110.515625 70.984375 C 109.578125 71.085938 108.675781 70.636719 108.207031 69.820312 C 108.046875 69.542969 107.945312 69.230469 107.902344 68.90625 C 107.777344 67.75 107.410156 66.597656 106.789062 65.527344 C 104.375 61.339844 99.023438 59.910156 94.839844 62.324219 C 90.664062 64.738281 89.230469 70.085938 91.644531 74.269531 C 92 74.886719 92.421875 75.445312 92.894531 75.941406 L 100.0625 71.800781 C 101.191406 71.152344 102.628906 71.539062 103.277344 72.664062 C 103.929688 73.789062 103.546875 75.234375 102.421875 75.886719 L 93.824219 80.847656 C 93.804688 80.859375 93.78125 80.875 93.757812 80.886719 L 85.773438 85.496094 C 83.734375 86.671875 83.039062 89.28125 84.214844 91.320312 L 86.890625 95.957031 L 117.125 78.5 C 118.253906 77.847656 119.699219 78.238281 120.351562 79.363281 C 121 80.488281 120.609375 81.929688 119.484375 82.582031 C 119.484375 82.582031 84.214844 102.945312 84.203125 102.949219 L 76.425781 107.441406 C 74.378906 108.621094 73.679688 111.230469 74.863281 113.273438 L 79.65625 121.582031 C 80.308594 122.707031 79.921875 124.144531 78.796875 124.796875 L 76.785156 125.957031 C 75.804688 126.523438 75.089844 127.457031 74.800781 128.542969 C 74.503906 129.644531 74.664062 130.804688 75.226562 131.785156 L 78.730469 137.847656 C 79.296875 138.828125 80.222656 139.546875 81.320312 139.839844 C 82.410156 140.132812 83.578125 139.980469 84.554688 139.414062 C 84.554688 139.414062 87.0625 137.964844 87.074219 137.960938 L 146.480469 103.660156 C 147.609375 103.011719 149.050781 103.394531 149.703125 104.519531 C 150.351562 105.648438 149.964844 107.09375 148.839844 107.746094 L 91.613281 140.785156 C 110.722656 168.5625 151.113281 217.851562 206.621094 221.035156 C 210.839844 221.28125 214.933594 221.363281 218.890625 221.308594 C 218.894531 221.304688 218.910156 221.304688 218.917969 221.304688 C 220.210938 221.308594 221.257812 222.339844 221.277344 223.628906 C 221.277344 223.640625 221.277344 223.652344 221.277344 223.667969 Z M 284.070312 194.933594 C 283.277344 194.386719 282.445312 194.117188 281.621094 194.339844 C 280.921875 194.53125 280.394531 195.078125 279.988281 195.785156 C 279.441406 196.726562 279.136719 197.9375 279.054688 199.285156 C 279.054688 199.308594 279.046875 199.335938 279.046875 199.363281 C 279.042969 199.417969 279.042969 199.472656 279.039062 199.535156 C 278.984375 200.835938 279.136719 202.242188 279.519531 203.671875 C 279.90625 205.097656 280.472656 206.394531 281.167969 207.492188 C 281.195312 207.53125 281.214844 207.5625 281.242188 207.609375 C 281.542969 208.0625 281.859375 208.484375 282.199219 208.859375 C 283.363281 210.171875 284.695312 211.050781 286.007812 210.699219 C 286.328125 210.613281 286.636719 210.398438 286.898438 210.085938 C 284.050781 207.558594 282.515625 204.988281 282.089844 202.484375 C 281.671875 199.984375 282.289062 197.445312 284.070312 194.933594 Z M 332.765625 190.648438 L 332.425781 189.382812 C 330.285156 189.75 288.496094 196.914062 288.496094 196.914062 C 287.132812 198.515625 286.46875 200.085938 286.738281 201.703125 C 287.03125 203.421875 288.257812 205.078125 290.273438 206.78125 Z M 332.765625 190.648438 " fill-opacity="1" fill-rule="evenodd"/></g></svg>