<svg xmlns="http://www.w3.org/2000/svg" xmlns:xlink="http://www.w3.org/1999/xlink" width="500" zoomAndPan="magnify" viewBox="0 0 375 374.999991" height="500" preserveAspectRatio="xMidYMid meet" version="1.0"><defs><clipPath id="61f4205979"><path d="M 43.308594 43.308594 L 332 43.308594 L 332 332 L 43.308594 332 Z M 43.308594 43.308594 " clip-rule="nonzero"/></clipPath></defs><g clip-path="url(#61f4205979)"><path fill="#fefefe" d="M 261.691406 331.683594 L 114.0625 331.683594 C 75.050781 331.683594 43.691406 300.320312 43.691406 261.308594 L 43.691406 113.679688 C 43.691406 74.667969 75.050781 43.308594 114.0625 43.308594 L 260.925781 43.308594 C 299.9375 43.308594 331.300781 74.667969 331.300781 113.679688 L 331.300781 260.542969 C 331.300781 299.554688 299.9375 330.917969 260.925781 330.917969 Z M 114.0625 66.253906 C 88.054688 66.253906 66.636719 87.671875 66.636719 113.679688 L 66.636719 260.542969 C 66.636719 286.550781 88.054688 307.96875 114.0625 307.96875 L 260.925781 307.96875 C 286.933594 307.96875 308.351562 286.550781 308.351562 260.542969 L 308.351562 113.679688 C 308.351562 87.671875 286.933594 66.253906 260.925781 66.253906 Z M 114.0625 66.253906 " fill-opacity="1" fill-rule="nonzero"/></g><path fill="#fefefe" d="M 188.261719 280.433594 C 137.773438 280.433594 97.234375 239.890625 97.234375 189.40625 C 97.234375 138.921875 137.773438 98.382812 188.261719 98.382812 C 238.746094 98.382812 279.285156 138.921875 279.285156 189.40625 C 279.285156 239.890625 238.746094 280.433594 188.261719 280.433594 Z M 188.261719 120.566406 C 150.015625 120.566406 119.417969 151.160156 119.417969 189.40625 C 119.417969 227.652344 150.015625 258.25 188.261719 258.25 C 226.507812 258.25 257.101562 227.652344 257.101562 189.40625 C 257.101562 151.160156 226.507812 120.566406 188.261719 120.566406 Z M 188.261719 120.566406 " fill-opacity="1" fill-rule="nonzero"/><path fill="#fefefe" d="M 188.261719 230.714844 C 165.3125 230.714844 146.953125 212.355469 146.953125 189.40625 C 146.953125 166.460938 165.3125 148.101562 188.261719 148.101562 C 211.207031 148.101562 229.566406 166.460938 229.566406 189.40625 C 229.566406 212.355469 211.207031 230.714844 188.261719 230.714844 Z M 188.261719 171.050781 C 178.316406 171.050781 169.902344 179.464844 169.902344 189.40625 C 169.902344 199.351562 178.316406 207.765625 188.261719 207.765625 C 198.203125 207.765625 206.617188 199.351562 206.617188 189.40625 C 206.617188 179.464844 198.203125 171.050781 188.261719 171.050781 Z M 188.261719 171.050781 " fill-opacity="1" fill-rule="nonzero"/><path fill="#fefefe" d="M 286.933594 103.734375 C 286.933594 104.742188 286.835938 105.734375 286.640625 106.722656 C 286.445312 107.707031 286.15625 108.664062 285.769531 109.589844 C 285.386719 110.519531 284.914062 111.398438 284.355469 112.234375 C 283.796875 113.070312 283.164062 113.84375 282.453125 114.554688 C 281.742188 115.265625 280.972656 115.898438 280.136719 116.457031 C 279.300781 117.015625 278.417969 117.484375 277.492188 117.871094 C 276.5625 118.253906 275.605469 118.542969 274.621094 118.742188 C 273.636719 118.9375 272.640625 119.035156 271.636719 119.035156 C 270.632812 119.035156 269.636719 118.9375 268.652344 118.742188 C 267.667969 118.542969 266.710938 118.253906 265.78125 117.871094 C 264.855469 117.484375 263.972656 117.015625 263.136719 116.457031 C 262.300781 115.898438 261.527344 115.265625 260.820312 114.554688 C 260.109375 113.84375 259.472656 113.070312 258.917969 112.234375 C 258.359375 111.398438 257.886719 110.519531 257.503906 109.589844 C 257.117188 108.664062 256.828125 107.707031 256.632812 106.722656 C 256.4375 105.734375 256.335938 104.742188 256.335938 103.734375 C 256.335938 102.730469 256.4375 101.738281 256.632812 100.75 C 256.828125 99.765625 257.117188 98.808594 257.503906 97.882812 C 257.886719 96.953125 258.359375 96.070312 258.917969 95.238281 C 259.472656 94.402344 260.109375 93.628906 260.820312 92.917969 C 261.527344 92.207031 262.300781 91.574219 263.136719 91.015625 C 263.972656 90.457031 264.855469 89.988281 265.78125 89.601562 C 266.710938 89.21875 267.667969 88.929688 268.652344 88.730469 C 269.636719 88.535156 270.632812 88.4375 271.636719 88.4375 C 272.640625 88.4375 273.636719 88.535156 274.621094 88.730469 C 275.605469 88.929688 276.5625 89.21875 277.492188 89.601562 C 278.417969 89.988281 279.300781 90.457031 280.136719 91.015625 C 280.972656 91.574219 281.742188 92.207031 282.453125 92.917969 C 283.164062 93.628906 283.796875 94.402344 284.355469 95.238281 C 284.914062 96.070312 285.386719 96.953125 285.769531 97.882812 C 286.15625 98.808594 286.445312 99.765625 286.640625 100.75 C 286.835938 101.738281 286.933594 102.730469 286.933594 103.734375 Z M 286.933594 103.734375 " fill-opacity="1" fill-rule="nonzero"/></svg>