<svg xmlns="http://www.w3.org/2000/svg" xmlns:xlink="http://www.w3.org/1999/xlink" width="500" zoomAndPan="magnify" viewBox="0 0 375 374.999991" height="500" preserveAspectRatio="xMidYMid meet" version="1.0"><defs><clipPath id="2bb70c7a7d"><path d="M 37.5 37.5 L 337.5 37.5 L 337.5 337.5 L 37.5 337.5 Z M 37.5 37.5 " clip-rule="nonzero"/></clipPath></defs><g clip-path="url(#2bb70c7a7d)"><path fill="#fefefe" d="M 90.75 37.5 L 284.074219 37.5 C 298.835938 37.5 312.191406 43.476562 321.859375 53.140625 C 331.523438 62.808594 337.5 76.164062 337.5 90.75 L 337.5 284.074219 C 337.5 298.835938 331.523438 312.191406 321.859375 321.859375 C 312.191406 331.523438 298.835938 337.5 284.074219 337.5 L 90.75 337.5 C 76.164062 337.5 62.808594 331.523438 53.140625 321.859375 C 43.476562 312.191406 37.5 298.835938 37.5 284.074219 L 37.5 90.75 C 37.5 76.164062 43.476562 62.808594 53.140625 53.140625 C 62.808594 43.476562 76.164062 37.5 90.75 37.5 Z M 284.074219 53.140625 L 90.75 53.140625 C 80.382812 53.140625 71.066406 57.359375 64.214844 64.214844 C 57.359375 71.066406 53.140625 80.382812 53.140625 90.75 L 53.140625 284.074219 C 53.140625 294.441406 57.359375 303.933594 64.214844 310.785156 C 71.066406 317.464844 80.382812 321.859375 90.75 321.859375 L 284.074219 321.859375 C 294.441406 321.859375 303.933594 317.464844 310.785156 310.785156 C 317.464844 303.933594 321.859375 294.441406 321.859375 284.074219 L 321.859375 90.75 C 321.859375 80.382812 317.464844 71.066406 310.785156 64.214844 C 303.933594 57.359375 294.441406 53.140625 284.074219 53.140625 Z M 284.074219 53.140625 " fill-opacity="1" fill-rule="nonzero"/></g><path fill="#fefefe" d="M 92.332031 141.542969 L 121.332031 141.542969 C 124.671875 141.542969 127.65625 142.773438 129.765625 144.882812 C 132.050781 146.992188 133.632812 149.976562 133.632812 153.492188 L 133.632812 287.9375 C 133.632812 291.277344 132.050781 294.441406 129.765625 296.550781 C 127.65625 298.660156 124.671875 299.890625 121.332031 299.890625 L 92.332031 299.890625 C 88.992188 299.890625 86.007812 298.660156 83.898438 296.550781 C 81.4375 294.441406 80.03125 291.277344 80.03125 287.9375 L 80.03125 153.492188 C 80.03125 149.976562 81.4375 146.992188 83.898438 144.882812 C 86.007812 142.773438 88.992188 141.542969 92.332031 141.542969 Z M 117.992188 157.183594 L 95.671875 157.183594 L 95.671875 284.25 L 117.992188 284.25 Z M 117.992188 157.183594 " fill-opacity="1" fill-rule="nonzero"/><path fill="#fefefe" d="M 165.621094 141.191406 L 194.617188 141.191406 C 197.957031 141.191406 200.945312 142.597656 203.054688 144.53125 C 205.515625 146.816406 206.921875 149.800781 206.921875 153.140625 L 206.921875 154.195312 C 213.246094 149.976562 220.453125 146.816406 227.832031 145.058594 C 238.027344 142.597656 248.746094 142.421875 258.589844 144.707031 C 268.605469 147.167969 277.921875 152.4375 284.425781 160.699219 C 290.925781 168.605469 294.792969 179.328125 294.792969 192.683594 L 294.792969 287.585938 C 294.792969 290.925781 293.386719 293.914062 291.101562 296.199219 C 288.992188 298.132812 286.007812 299.539062 282.667969 299.539062 L 253.492188 299.539062 C 250.328125 299.539062 247.34375 298.132812 245.058594 296.199219 C 242.773438 293.914062 241.367188 290.925781 241.367188 287.585938 L 241.367188 212.542969 C 241.367188 205.515625 237.324219 201.121094 232.226562 199.1875 C 229.941406 198.308594 227.308594 197.957031 224.847656 197.957031 C 222.210938 197.957031 219.574219 198.484375 217.113281 199.363281 C 211.3125 201.472656 206.921875 205.867188 206.921875 212.542969 L 206.921875 287.9375 C 206.921875 291.277344 205.515625 294.441406 203.054688 296.550781 C 200.945312 298.660156 197.957031 299.890625 194.617188 299.890625 L 165.621094 299.890625 C 162.28125 299.890625 159.292969 298.660156 157.183594 296.550781 C 154.898438 294.441406 153.316406 291.277344 153.316406 287.9375 L 153.316406 153.140625 C 153.316406 149.800781 154.898438 146.816406 157.183594 144.53125 C 159.292969 142.597656 162.28125 141.191406 165.621094 141.191406 Z M 191.277344 156.832031 L 168.957031 156.832031 L 168.957031 284.25 L 191.277344 284.25 L 191.277344 212.542969 C 191.277344 198.308594 200.242188 188.816406 211.839844 184.601562 C 215.882812 183.195312 220.277344 182.492188 224.671875 182.316406 C 229.0625 182.316406 233.457031 183.019531 237.675781 184.601562 C 248.570312 188.640625 257.007812 197.78125 257.007812 212.542969 L 257.007812 283.898438 L 279.152344 283.898438 L 279.152344 192.683594 C 279.152344 183.195312 276.515625 175.8125 272.296875 170.539062 C 267.902344 165.09375 261.753906 161.578125 254.898438 159.820312 C 247.515625 158.0625 239.433594 158.238281 231.699219 160.171875 C 221.15625 162.808594 211.664062 168.429688 205.515625 176.867188 C 204.109375 178.976562 201.824219 180.207031 199.011719 180.207031 C 194.792969 180.207031 191.277344 176.691406 191.277344 172.472656 Z M 191.277344 156.832031 " fill-opacity="1" fill-rule="nonzero"/><path fill="#fefefe" d="M 106.746094 74.933594 C 114.652344 74.933594 121.859375 78.273438 126.957031 83.371094 C 132.050781 88.464844 135.214844 95.671875 135.214844 103.40625 C 135.214844 111.3125 132.050781 118.34375 126.957031 123.617188 C 121.859375 128.710938 114.652344 131.875 106.746094 131.875 C 99.011719 131.875 91.804688 128.710938 86.710938 123.617188 C 81.613281 118.34375 78.449219 111.3125 78.449219 103.40625 C 78.449219 95.671875 81.613281 88.464844 86.710938 83.371094 C 91.804688 78.273438 99.011719 74.933594 106.746094 74.933594 Z M 115.882812 94.441406 C 113.597656 92.15625 110.433594 90.75 106.746094 90.75 C 103.230469 90.75 100.066406 92.15625 97.78125 94.441406 C 95.496094 96.726562 94.089844 99.890625 94.089844 103.40625 C 94.089844 106.921875 95.496094 110.257812 97.78125 112.542969 C 100.066406 114.828125 103.230469 116.234375 106.746094 116.234375 C 110.433594 116.234375 113.597656 114.828125 115.882812 112.542969 C 118.167969 110.257812 119.574219 106.921875 119.574219 103.40625 C 119.574219 99.890625 118.167969 96.726562 115.882812 94.441406 Z M 115.882812 94.441406 " fill-opacity="1" fill-rule="nonzero"/></svg>