<svg xmlns="http://www.w3.org/2000/svg" xmlns:xlink="http://www.w3.org/1999/xlink" width="500" zoomAndPan="magnify" viewBox="0 0 375 374.999991" height="500" preserveAspectRatio="xMidYMid meet" version="1.0"><defs><clipPath id="de40984401"><path d="M 37.5 57 L 337.5 57 L 337.5 318 L 37.5 318 Z M 37.5 57 " clip-rule="nonzero"/></clipPath></defs><path fill="#53c1de" d="M 214.289062 187.445312 C 214.289062 173.082031 202.296875 161.4375 187.5 161.4375 C 172.707031 161.4375 160.710938 173.082031 160.710938 187.445312 C 160.710938 201.8125 172.707031 213.457031 187.5 213.457031 C 202.296875 213.457031 214.289062 201.8125 214.289062 187.445312 Z M 214.289062 187.445312 " fill-opacity="1" fill-rule="nonzero"/><g clip-path="url(#de40984401)"><path fill="#53c1de" d="M 274.503906 139.160156 C 280.160156 116.839844 287.273438 75.453125 262.203125 61.421875 C 237.253906 47.449219 204.785156 74.21875 187.640625 90.289062 C 170.542969 74.378906 137.164062 47.722656 112.117188 61.800781 C 87.175781 75.816406 94.867188 116.519531 100.648438 138.980469 C 77.382812 145.394531 37.5 159.214844 37.5 187.445312 C 37.5 215.597656 77.339844 230.632812 100.46875 237.042969 C 94.664062 259.625 87.359375 299.746094 112.332031 313.734375 C 137.472656 327.808594 170.75 301.785156 188.054688 285.539062 C 205.308594 301.703125 237.464844 327.894531 262.421875 313.871094 C 287.457031 299.800781 280.9375 258.964844 275.152344 236.378906 C 297.574219 229.953125 337.5 215.246094 337.5 187.445312 C 337.5 159.484375 297.402344 145.554688 274.503906 139.160156 Z M 271.660156 224.40625 C 267.863281 212.738281 262.738281 200.328125 256.472656 187.507812 C 262.453125 174.992188 267.382812 162.742188 271.070312 151.148438 C 287.859375 155.871094 324.683594 166.671875 324.683594 187.445312 C 324.683594 208.414062 289.347656 219.316406 271.660156 224.40625 Z M 256 303.101562 C 237.378906 313.566406 209.722656 288.519531 196.976562 276.617188 C 205.433594 267.636719 213.878906 257.203125 222.125 245.613281 C 236.628906 244.367188 250.328125 242.324219 262.757812 239.535156 C 266.824219 255.511719 274.703125 292.589844 256 303.101562 Z M 118.734375 302.953125 C 100.113281 292.527344 108.625 256.726562 112.894531 240.089844 C 125.183594 242.730469 138.785156 244.628906 153.324219 245.773438 C 161.621094 257.113281 170.316406 267.535156 179.074219 276.664062 C 168.253906 286.828125 137.445312 313.425781 118.734375 302.953125 Z M 50.316406 187.445312 C 50.316406 166.398438 86.921875 155.675781 104.089844 150.964844 C 107.84375 162.820312 112.769531 175.214844 118.710938 187.75 C 112.691406 200.46875 107.699219 213.0625 103.910156 225.058594 C 87.535156 220.507812 50.316406 208.507812 50.316406 187.445312 Z M 118.535156 72.570312 C 137.234375 62.0625 166.246094 87.652344 178.660156 99.171875 C 169.945312 108.257812 161.332031 118.601562 153.101562 129.875 C 138.992188 131.144531 125.488281 133.183594 113.070312 135.914062 C 108.414062 117.800781 99.859375 83.066406 118.535156 72.570312 Z M 231.292969 143.398438 C 240.863281 144.570312 250.035156 146.132812 258.648438 148.039062 C 256.0625 156.085938 252.839844 164.496094 249.046875 173.121094 C 243.542969 162.988281 237.640625 153.058594 231.292969 143.398438 Z M 187.644531 108.0625 C 193.554688 114.277344 199.472656 121.222656 205.296875 128.753906 C 193.484375 128.210938 181.652344 128.207031 169.839844 128.746094 C 175.667969 121.285156 181.640625 114.351562 187.644531 108.0625 Z M 126.066406 173.113281 C 122.332031 164.519531 119.140625 156.070312 116.53125 147.910156 C 125.089844 146.050781 134.21875 144.53125 143.730469 143.375 C 137.367188 153.011719 131.472656 162.9375 126.066406 173.113281 Z M 144.003906 232.402344 C 134.179688 231.339844 124.914062 229.898438 116.355469 228.089844 C 119.003906 219.785156 122.269531 211.152344 126.078125 202.375 C 131.558594 212.652344 137.546875 222.675781 144.003906 232.402344 Z M 187.996094 267.710938 C 181.925781 261.347656 175.863281 254.308594 169.949219 246.738281 C 181.828125 247.191406 193.730469 247.191406 205.609375 246.675781 C 199.769531 254.382812 193.867188 261.433594 187.996094 267.710938 Z M 249.167969 201.929688 C 253.175781 210.800781 256.558594 219.386719 259.242188 227.550781 C 250.542969 229.476562 241.152344 231.03125 231.257812 232.183594 C 237.648438 222.339844 243.648438 212.257812 249.167969 201.929688 Z M 214.972656 233.691406 C 196.800781 234.949219 178.515625 234.9375 160.339844 233.792969 C 150.007812 219.144531 140.8125 203.738281 132.878906 187.746094 C 140.777344 171.785156 149.902344 156.410156 160.183594 141.785156 C 178.375 140.449219 196.679688 140.445312 214.867188 141.792969 C 225.0625 156.417969 234.175781 171.753906 242.257812 187.566406 C 234.269531 203.519531 225.09375 218.925781 214.972656 233.691406 Z M 255.804688 72.199219 C 274.507812 82.671875 266.179688 119.871094 262.09375 136.042969 C 249.648438 133.253906 236.132812 131.179688 221.984375 129.890625 C 213.738281 118.496094 205.199219 108.132812 196.625 99.164062 C 209.195312 87.398438 237.28125 61.828125 255.804688 72.199219 Z M 255.804688 72.199219 " fill-opacity="1" fill-rule="evenodd"/></g></svg>